<?xml version="1.0" encoding="UTF-8" standalone="no"?><svg xmlns="http://www.w3.org/2000/svg" xmlns:xlink="http://www.w3.org/1999/xlink" contentStyleType="text/css" height="348px" preserveAspectRatio="none" style="width:703px;height:348px;background:#FFFFFF;" version="1.1" viewBox="0 0 703 348" width="703px" zoomAndPan="magnify"><defs/><g><!--MD5=[72136138052d025cffdce3c22fbd185f]
class Product--><g id="elem_Product"><rect codeLine="2" fill="#F1F1F1" height="61.2188" id="Product" rx="2.5" ry="2.5" style="stroke:#181818;stroke-width:0.5;" width="88" x="97.5" y="13"/><text fill="#000000" font-family="sans-serif" font-size="14" font-style="italic" lengthAdjust="spacing" textLength="49" x="117" y="32.5332">Product</text><line style="stroke:#181818;stroke-width:0.5;" x1="98.5" x2="184.5" y1="40.6094" y2="40.6094"/><line style="stroke:#181818;stroke-width:0.5;" x1="98.5" x2="184.5" y1="48.6094" y2="48.6094"/><ellipse cx="108.5" cy="62.9141" fill="#84BE84" rx="3" ry="3" style="stroke:#038048;stroke-width:1.0;"/><text fill="#000000" font-family="sans-serif" font-size="14" lengthAdjust="spacing" textLength="62" x="117.5" y="67.1426">opertion()</text></g><!--MD5=[9e1f217a44db012abe7b922da54c0dd9]
class ConcreteProduct1--><g id="elem_ConcreteProduct1"><rect codeLine="6" fill="#F1F1F1" height="61.2188" id="ConcreteProduct1" rx="2.5" ry="2.5" style="stroke:#181818;stroke-width:0.5;" width="121" x="7" y="150"/><text fill="#000000" font-family="sans-serif" font-size="14" lengthAdjust="spacing" textLength="115" x="10" y="169.5332">ConcreteProduct1</text><line style="stroke:#181818;stroke-width:0.5;" x1="8" x2="127" y1="177.6094" y2="177.6094"/><line style="stroke:#181818;stroke-width:0.5;" x1="8" x2="127" y1="185.6094" y2="185.6094"/><text fill="#000000" font-family="sans-serif" font-size="14" lengthAdjust="spacing" textLength="109" x="13" y="204.1426">string operation()</text></g><!--MD5=[7c2a1f0b305d4b6d9d46d9f16110c367]
class ConcreteProduct2--><g id="elem_ConcreteProduct2"><rect codeLine="10" fill="#F1F1F1" height="61.2188" id="ConcreteProduct2" rx="2.5" ry="2.5" style="stroke:#181818;stroke-width:0.5;" width="121" x="163" y="150"/><text fill="#000000" font-family="sans-serif" font-size="14" lengthAdjust="spacing" textLength="115" x="166" y="169.5332">ConcreteProduct2</text><line style="stroke:#181818;stroke-width:0.5;" x1="164" x2="283" y1="177.6094" y2="177.6094"/><line style="stroke:#181818;stroke-width:0.5;" x1="164" x2="283" y1="185.6094" y2="185.6094"/><text fill="#000000" font-family="sans-serif" font-size="14" lengthAdjust="spacing" textLength="109" x="169" y="204.1426">string operation()</text></g><!--MD5=[2c589014e840926a718801db2289e0a7]
class Creator--><g id="elem_Creator"><rect codeLine="17" fill="#F1F1F1" height="78.8281" id="Creator" rx="2.5" ry="2.5" style="stroke:#181818;stroke-width:0.5;" width="234" x="327.5" y="141"/><text fill="#000000" font-family="sans-serif" font-size="14" font-style="italic" lengthAdjust="spacing" textLength="48" x="420.5" y="160.5332">Creator</text><line style="stroke:#181818;stroke-width:0.5;" x1="328.5" x2="560.5" y1="168.6094" y2="168.6094"/><line style="stroke:#181818;stroke-width:0.5;" x1="328.5" x2="560.5" y1="176.6094" y2="176.6094"/><ellipse cx="338.5" cy="190.9141" fill="#84BE84" rx="3" ry="3" style="stroke:#038048;stroke-width:1.0;"/><text fill="#000000" font-family="sans-serif" font-size="14" lengthAdjust="spacing" textLength="109" x="347.5" y="195.1426">string operation()</text><ellipse cx="338.5" cy="208.5234" fill="#84BE84" rx="3" ry="3" style="stroke:#038048;stroke-width:1.0;"/><text fill="#000000" font-family="sans-serif" font-size="14" lengthAdjust="spacing" textLength="208" x="347.5" y="212.752">abstract Product factoryMethod()</text></g><g id="elem_GMN8"><path d="M294,6 L294,81.4063 A0,0 0 0 0 294,81.4063 L440.5,81.4063 L444.5,140.57 L448.5,81.4063 L595,81.4063 A0,0 0 0 0 595,81.4063 L595,16 L585,6 L294,6 A0,0 0 0 0 294,6 " fill="#FEFFDD" style="stroke:#181818;stroke-width:0.5;"/><path d="M585,6 L585,16 L595,16 L585,6 " fill="#FEFFDD" style="stroke:#181818;stroke-width:0.5;"/><text fill="#000000" font-family="sans-serif" font-size="13" lengthAdjust="spacing" textLength="214" x="300" y="24.4951">the Creator's primary responsibility is</text><text fill="#000000" font-family="sans-serif" font-size="13" lengthAdjust="spacing" textLength="241" x="300" y="40.8467">not creating products. Usually, it contains</text><text fill="#000000" font-family="sans-serif" font-size="13" lengthAdjust="spacing" textLength="227" x="300" y="57.1982">some core business logic that relies on</text><text fill="#000000" font-family="sans-serif" font-size="13" lengthAdjust="spacing" textLength="280" x="300" y="73.5498">Product objects, returned by the factory method.</text></g><!--MD5=[6c609a9adc44db3b4cb8c6bc8eec83d0]
class ConcreteCreator1--><g id="elem_ConcreteCreator1"><rect codeLine="29" fill="#F1F1F1" height="61.2188" id="ConcreteCreator1" rx="2.5" ry="2.5" style="stroke:#181818;stroke-width:0.5;" width="234" x="193.5" y="280"/><text fill="#000000" font-family="sans-serif" font-size="14" lengthAdjust="spacing" textLength="114" x="253.5" y="299.5332">ConcreteCreator1</text><line style="stroke:#181818;stroke-width:0.5;" x1="194.5" x2="426.5" y1="307.6094" y2="307.6094"/><line style="stroke:#181818;stroke-width:0.5;" x1="194.5" x2="426.5" y1="315.6094" y2="315.6094"/><ellipse cx="204.5" cy="329.9141" fill="#84BE84" rx="3" ry="3" style="stroke:#038048;stroke-width:1.0;"/><text fill="#000000" font-family="sans-serif" font-size="14" lengthAdjust="spacing" textLength="208" x="213.5" y="334.1426">abstract Product factoryMethod()</text></g><!--MD5=[194b55b1969cc9c47fdba3da1b5dd1ef]
class ConcreteCreator2--><g id="elem_ConcreteCreator2"><rect codeLine="33" fill="#F1F1F1" height="61.2188" id="ConcreteCreator2" rx="2.5" ry="2.5" style="stroke:#181818;stroke-width:0.5;" width="234" x="462.5" y="280"/><text fill="#000000" font-family="sans-serif" font-size="14" lengthAdjust="spacing" textLength="114" x="522.5" y="299.5332">ConcreteCreator2</text><line style="stroke:#181818;stroke-width:0.5;" x1="463.5" x2="695.5" y1="307.6094" y2="307.6094"/><line style="stroke:#181818;stroke-width:0.5;" x1="463.5" x2="695.5" y1="315.6094" y2="315.6094"/><ellipse cx="473.5" cy="329.9141" fill="#84BE84" rx="3" ry="3" style="stroke:#038048;stroke-width:1.0;"/><text fill="#000000" font-family="sans-serif" font-size="14" lengthAdjust="spacing" textLength="208" x="482.5" y="334.1426">abstract Product factoryMethod()</text></g><!--MD5=[3e631a4e6bb7e408c66afd34fbd92e8d]
reverse link Product to ConcreteProduct1--><g id="link_Product_ConcreteProduct1"><path codeLine="14" d="M115.62,91.71 C105.01,111.07 93.04,132.9 83.7,149.94 " fill="none" id="Product-backto-ConcreteProduct1" style="stroke:#181818;stroke-width:1.0;stroke-dasharray:7.0,7.0;"/><polygon fill="none" points="109.51,88.3,125.26,74.13,121.79,95.03,109.51,88.3" style="stroke:#181818;stroke-width:1.0;"/></g><!--MD5=[74652e2bb7add63ff19c45362af0f0c8]
reverse link Product to ConcreteProduct2--><g id="link_Product_ConcreteProduct2"><path codeLine="15" d="M169.99,91.41 C181.8,110.85 195.14,132.81 205.55,149.94 " fill="none" id="Product-backto-ConcreteProduct2" style="stroke:#181818;stroke-width:1.0;stroke-dasharray:7.0,7.0;"/><polygon fill="none" points="163.9,94.85,159.5,74.13,175.86,87.59,163.9,94.85" style="stroke:#181818;stroke-width:1.0;"/></g><!--MD5=[4718f0aff278693ef7824cadff599223]
reverse link Creator to ConcreteCreator1--><g id="link_Creator_ConcreteCreator1"><path codeLine="37" d="M389.35,234.18 C373.04,249.76 355.77,266.25 341.57,279.83 " fill="none" id="Creator-backto-ConcreteCreator1" style="stroke:#181818;stroke-width:1.0;"/><polygon fill="none" points="384.63,229,403.93,220.25,394.3,239.13,384.63,229" style="stroke:#181818;stroke-width:1.0;"/></g><!--MD5=[5fd5a0bef2266ecd7a485cb803f826c4]
reverse link Creator to ConcreteCreator2--><g id="link_Creator_ConcreteCreator2"><path codeLine="38" d="M500.06,234.18 C516.49,249.76 533.89,266.25 548.2,279.83 " fill="none" id="Creator-backto-ConcreteCreator2" style="stroke:#181818;stroke-width:1.0;"/><polygon fill="none" points="495.07,239.09,485.37,220.25,504.7,228.93,495.07,239.09" style="stroke:#181818;stroke-width:1.0;"/></g><!--MD5=[27519c97902aecc20b06e0a7c6178a10]
@startuml

interface Product{
  +opertion()
}

class ConcreteProduct1{
   string operation()
}

class ConcreteProduct2{
   string operation()
}

Product <|.. ConcreteProduct1
Product <|.. ConcreteProduct2

abstract class Creator {
  +string operation()
  +abstract Product factoryMethod()
}

note top of Creator
  the Creator's primary responsibility is
  not creating products. Usually, it contains 
  some core business logic that relies on 
  Product objects, returned by the factory method.
end note

class ConcreteCreator1{
  +abstract Product factoryMethod()
}

class ConcreteCreator2{
  +abstract Product factoryMethod()
}

Creator <|- - ConcreteCreator1
Creator <|- - ConcreteCreator2

hide class circle 
hide interface circle
hide abstract circle
@enduml

PlantUML version 1.2022.7(Tue Aug 23 02:01:30 KST 2022)
(GPL source distribution)
Java Runtime: Java(TM) SE Runtime Environment
JVM: Java HotSpot(TM) 64-Bit Server VM
Default Encoding: UTF-8
Language: en
Country: AU
--></g></svg>